<svg version="1.1" id="Layer_1" xmlns="http://www.w3.org/2000/svg" xmlns:xlink="http://www.w3.org/1999/xlink" x="0px" y="0px" viewBox="0 0 500 500" style="width: 158px;" xml:space="preserve" data-imageid="marketing-4-37" imageName="Marketing 4" class="illustrations_image">
<style type="text/css">
	.st0_marketing-4-37{fill:#FFFFFF;}
	.st1_marketing-4-37{fill:#D1D3D4;}
	.st2_marketing-4-37{fill:#231F20;}
	.st3_marketing-4-37{fill:#68E1FD;}
	.st4_marketing-4-37{fill:none;}
</style>
<g id="Arrows_marketing-4-37">
	<polygon class="st0_marketing-4-37" points="243.7,414.3 371.2,299.5 359.9,290.5 415.6,277.7 403.4,325 393.3,317.2 287,414.3 &#9;"/>
	<path class="st1_marketing-4-37" d="M287,415h-43.4c-0.3,0-0.5-0.2-0.6-0.5c-0.1-0.3,0-0.6,0.2-0.8l126.9-114.2l-10.7-8.5&#10;&#9;&#9;c-0.2-0.2-0.3-0.4-0.2-0.7c0.1-0.3,0.3-0.5,0.5-0.5l55.8-12.7c0.2-0.1,0.5,0,0.6,0.2c0.2,0.2,0.2,0.4,0.2,0.7L404,325.1&#10;&#9;&#9;c-0.1,0.2-0.2,0.4-0.5,0.5c-0.2,0.1-0.5,0-0.7-0.1l-9.6-7.4l-105.8,96.8C287.4,415,287.2,415,287,415z M245.4,413.6h41.3l106.1-97&#10;&#9;&#9;c0.3-0.2,0.6-0.2,0.9,0l9.2,7.1l11.7-45.1l-53.2,12.1l10.2,8.2c0.2,0.1,0.3,0.3,0.3,0.5c0,0.2-0.1,0.4-0.2,0.5L245.4,413.6z"/>
	<polygon class="st0_marketing-4-37" points="249.5,333.1 258,338.3 183.3,400.1 228.9,401.7 281.1,354.6 290.3,359.9 301.9,318.9 &#9;"/>
	<path class="st1_marketing-4-37" d="M228.9,402.4L228.9,402.4l-45.6-1.6c-0.4,0-0.7-0.3-0.7-0.7c0-0.2,0.1-0.4,0.3-0.5l73.9-61.1l-7.7-4.7&#10;&#9;&#9;c-0.3-0.2-0.4-0.6-0.2-1c0.1-0.2,0.2-0.3,0.4-0.3l52.4-14.1c0.4-0.1,0.8,0.1,0.9,0.5c0,0.1,0,0.2,0,0.4l-11.6,41&#10;&#9;&#9;c-0.1,0.2-0.2,0.4-0.4,0.5c-0.2,0.1-0.4,0.1-0.6,0l-8.8-5.1l-51.8,46.8C229.3,402.3,229.1,402.4,228.9,402.4z M185.2,399.4&#10;&#9;&#9;l43.5,1.6l52-46.9c0.2-0.2,0.6-0.2,0.8-0.1l8.5,4.9l11-38.9l-49.6,13.4l7.1,4.4c0.2,0.1,0.3,0.3,0.3,0.5c0,0.2-0.1,0.4-0.2,0.6&#10;&#9;&#9;L185.2,399.4z"/>
	<polygon class="st0_marketing-4-37" points="340.7,414.3 369.7,388.2 377.1,391.7 386.2,364 348.2,373.5 355.7,378.2 311.9,414.3 &#9;"/>
	<path class="st1_marketing-4-37" d="M340.7,415h-28.8c-0.3,0-0.6-0.2-0.7-0.5c-0.1-0.3,0-0.6,0.2-0.8l43-35.5l-6.7-4.1c-0.3-0.2-0.4-0.6-0.2-1&#10;&#9;&#9;c0.1-0.2,0.3-0.3,0.4-0.3l38.1-9.5c0.4-0.1,0.8,0.1,0.8,0.5c0,0.1,0,0.3,0,0.4l-9.1,27.7c-0.1,0.4-0.5,0.6-0.9,0.5&#10;&#9;&#9;c0,0-0.1,0-0.1-0.1l-7-3.3l-28.6,25.9C341.1,414.9,340.9,415,340.7,415z M313.9,413.6h26.6l28.8-26c0.2-0.2,0.5-0.2,0.8-0.1&#10;&#9;&#9;l6.7,3.2l8.5-25.7l-35.2,8.8l6.1,3.8c0.2,0.1,0.3,0.3,0.3,0.5c0,0.2-0.1,0.4-0.2,0.6L313.9,413.6z"/>
</g>
<g id="Character_marketing-4-37">
	<path class="st0_marketing-4-37" d="M362.5,197.5l-18.9,29.4l19.4,10.3l25.6-39.2c0,0-13.8-20-16.6-21S362.5,197.5,362.5,197.5z"/>
	<path class="st2_marketing-4-37" d="M363,237.9c-0.1,0-0.2,0-0.3-0.1l-19.4-10.3c-0.2-0.1-0.3-0.3-0.4-0.4c0-0.2,0-0.4,0.1-0.6l18.9-29.4&#10;&#9;&#9;c1.1-3.4,6.2-19.2,9.3-20.7c0.3-0.2,0.7-0.2,1.1-0.1c2.8,1,14.6,17.8,16.9,21.2c0.2,0.2,0.2,0.5,0,0.8l-25.6,39.2&#10;&#9;&#9;C363.5,237.8,363.2,237.9,363,237.9z M344.6,226.7l18.2,9.6l25-38.3c-5.3-7.7-14.1-19.6-16-20.3c-1.5,0.3-5.6,10.6-8.6,20&#10;&#9;&#9;c0,0.1,0,0.1-0.1,0.2L344.6,226.7z M362.5,197.5L362.5,197.5z"/>
	<path class="st0_marketing-4-37" d="M347,169.2c0,0,0.8,7.4,4.7,9.9s14.4,0.9,15.3,1.8s19.1,26.7,21.2,28s8.3-3,12.3-9.1c0,0-18.3-23.5-19.2-25.7&#10;&#9;&#9;s0.5-12.9-0.6-17.3L347,169.2z"/>
	<path class="st2_marketing-4-37" d="M389.1,209.7c-0.4,0-0.9-0.1-1.2-0.3c-1.5-0.9-8.9-11-17-22.1c-2.2-3.1-4.1-5.7-4.4-6&#10;&#9;&#9;c-1.3-0.1-2.5-0.2-3.8-0.1c-3.7,0-8.9,0.1-11.4-1.6c-4.1-2.6-5-10-5-10.4c0-0.3,0.1-0.6,0.5-0.7l33.7-12.5c0.2-0.1,0.4-0.1,0.6,0&#10;&#9;&#9;c0.2,0.1,0.3,0.3,0.4,0.4c0.6,2.4,0.5,6.5,0.4,10.1c-0.1,3.1-0.2,6.2,0.2,7.1c0.7,1.6,11.8,16.1,19.2,25.6c0.2,0.2,0.2,0.6,0,0.8&#10;&#9;&#9;C397.6,205.5,392.2,209.7,389.1,209.7z M364.1,179.8c2,0,3,0.1,3.4,0.5c0.3,0.3,1.7,2.2,4.5,6.1c5,6.8,15.2,20.9,16.6,21.8&#10;&#9;&#9;s7.1-2.6,11.1-8.5c-2.9-3.8-18.1-23.4-19-25.5c-0.5-1.1-0.5-3.7-0.3-7.7c0.2-3,0.1-6-0.2-8.9l-32.4,12.1c0.3,1.7,1.3,6.9,4.3,8.8&#10;&#9;&#9;c2.2,1.4,7.1,1.4,10.6,1.3L364.1,179.8z"/>
	<path class="st1_marketing-4-37" d="M396.9,203.2c-0.2,0-0.4-0.1-0.6-0.3l-20.2-28.5c-0.2-0.3-0.2-0.7,0.1-1c0,0,0,0,0,0c0.3-0.2,0.8-0.2,1,0.2&#10;&#9;&#9;c0,0,0,0,0,0l20.2,28.5c0.2,0.3,0.2,0.7-0.1,1c0,0,0,0,0,0C397.2,203.2,397.1,203.2,396.9,203.2z"/>
	<path class="st2_marketing-4-37" d="M377.5,162.3c-0.7,1.7-1,3.5-0.7,5.3c0.6,2.8,5.4,7.8,5.4,7.8l6.7-6.9l-6.1-8.3L377.5,162.3z"/>
	<path class="st2_marketing-4-37" d="M382.2,176.1c-0.2,0-0.4-0.1-0.5-0.2c-0.2-0.2-5-5.2-5.6-8.2c-0.3-1.9-0.1-3.9,0.7-5.7&#10;&#9;&#9;c0.1-0.2,0.2-0.3,0.4-0.3l5.3-2.1c0.3-0.1,0.6,0,0.8,0.2l6.1,8.3c0.2,0.3,0.2,0.7-0.1,0.9l-6.7,6.9&#10;&#9;&#9;C382.6,176,382.4,176.1,382.2,176.1z M378.1,162.8c-0.6,1.5-0.8,3.1-0.5,4.6c0.4,1.9,3.2,5.3,4.7,6.9l5.8-5.9l-5.4-7.4L378.1,162.8&#10;&#9;&#9;z"/>
	<path class="st0_marketing-4-37" d="M395.7,193.3c0,0,4.3-6,0.7-7.7c0,0,0.9-5-4.3-4.4c0,0,0.4-5.4-3.9-5.6s-10.4,8.1-10.7,10.7s3.3,2.1,5.6,0.4&#10;&#9;&#9;c0,0-3.2,3.1-2.2,4.5c1.5,2.1,4.4,0.2,6.6-1.1c0,0-3.9,3.5-0.4,5.1c2.7,1.2,7.1-3.6,7.1-3.6L395.7,193.3z"/>
	<path class="st2_marketing-4-37" d="M388.1,195.9c-0.4,0-0.9-0.1-1.2-0.3c-0.9-0.3-1.6-1.1-1.8-2.1c-0.1-0.5,0-1.1,0.2-1.6&#10;&#9;&#9;c-1.8,0.8-3.7,1.2-4.9-0.5c-0.6-0.8-0.3-1.9,0.3-2.9c-0.9,0.3-1.9,0.2-2.8-0.2c-0.8-0.5-1.2-1.3-1-2.2c0.3-2.8,6.7-11.6,11.4-11.3&#10;&#9;&#9;c1.2,0,2.3,0.6,3.1,1.4c0.9,1.2,1.4,2.7,1.4,4.1h0.1c1.2-0.1,2.4,0.4,3.2,1.2c0.8,1,1.2,2.3,1.1,3.6c0.6,0.4,1.1,1,1.3,1.8&#10;&#9;&#9;c0.7,2.7-1.8,6.3-2.1,6.7c-0.1,0.2-0.3,0.3-0.6,0.3c-0.2,0-0.4-0.1-0.6-0.3l-1-1.2C393,193.6,390.4,195.9,388.1,195.9z&#10;&#9;&#9; M387.5,189.2c0.2,0,0.4,0.1,0.6,0.3c0.2,0.3,0.2,0.7-0.1,0.9c-0.5,0.4-1.8,1.9-1.6,2.9c0,0.2,0.1,0.6,1,1.1&#10;&#9;&#9;c1.8,0.8,5.2-2.3,6.3-3.4c0.1-0.1,0.3-0.2,0.5-0.2c0.2,0,0.4,0.1,0.5,0.3l0.9,1.1c0.8-1.3,1.8-3.4,1.4-4.8c-0.1-0.5-0.5-0.9-1-1.1&#10;&#9;&#9;c-0.3-0.1-0.5-0.4-0.4-0.8c0.2-1-0.1-2.1-0.7-2.9c-0.8-0.7-1.9-1-2.9-0.7c-0.2,0-0.4,0-0.6-0.2c-0.2-0.1-0.2-0.3-0.2-0.6&#10;&#9;&#9;c0.1-1.4-0.3-2.8-1.1-3.9c-0.5-0.6-1.3-1-2.1-1c-3.9-0.2-9.7,7.9-9.9,10c-0.1,0.6,0.1,0.8,0.3,0.9c0.7,0.4,2.6,0,4.1-1.1&#10;&#9;&#9;c0.3-0.2,0.7-0.2,1,0.1c0,0,0,0,0,0c0.3,0.3,0.3,0.7,0,1c-1.3,1.2-2.5,3-2.1,3.6c1,1.3,2.8,0.4,5.2-1.1l0.5-0.3&#10;&#9;&#9;C387.3,189.2,387.4,189.2,387.5,189.2z"/>
	<path class="st0_marketing-4-37" d="M384.8,167.6c0,0-1-4.6-4.4-1.9s-8.3,8.1-4.6,10S384.7,171.3,384.8,167.6z"/>
	<path class="st2_marketing-4-37" d="M377.2,176.7c-0.6,0-1.2-0.1-1.8-0.4c-1-0.4-1.6-1.3-1.7-2.4c-0.3-3,3.9-7.1,6.2-8.8c0.9-0.8,2.1-1.1,3.2-0.8&#10;&#9;&#9;c1.7,0.6,2.2,2.9,2.3,3.2c0,0.1,0,0.1,0,0.2c-0.1,2.7-2.6,6.6-5.4,8.3C379.2,176.4,378.2,176.7,377.2,176.7z M382.3,165.5&#10;&#9;&#9;c-0.6,0.1-1.1,0.3-1.5,0.7c-2.9,2.2-5.8,5.6-5.7,7.6c0.1,0.6,0.4,1,0.9,1.3c1.1,0.4,2.3,0.3,3.3-0.4c2.4-1.4,4.6-4.7,4.7-7&#10;&#9;&#9;c-0.1-0.5-0.6-1.8-1.4-2.1C382.6,165.5,382.4,165.5,382.3,165.5z"/>
	<path class="st0_marketing-4-37" d="M361.8,199.6c0,0,1.4-13.1,1.9-15.4c0.8-3.9,3.5-9.4,7.1-9.2s11.3,1.7,9,4.6c-2.1,2.6-8.8,1.1-8.8,1.1&#10;&#9;&#9;s3,6,0.9,10.3"/>
	<path class="st2_marketing-4-37" d="M361.8,200.3L361.8,200.3c-0.5,0-0.7-0.4-0.7-0.8c0.1-0.5,1.4-13.2,1.9-15.5c0.8-3.9,3.6-10,7.8-9.8&#10;&#9;&#9;c1.8,0.1,8.8,0.9,9.9,3.5c0.3,0.8,0.2,1.6-0.4,2.2c-1.8,2.2-6,1.9-8.2,1.6c0.8,2.1,2,6.3,0.4,9.7c-0.2,0.3-0.6,0.5-0.9,0.3&#10;&#9;&#9;s-0.5-0.6-0.3-0.9c2-3.9-0.9-9.6-0.9-9.7c-0.2-0.3,0-0.8,0.3-0.9c0.1-0.1,0.3-0.1,0.5-0.1c1.8,0.4,6.6,1,8.1-0.8&#10;&#9;&#9;c0.4-0.5,0.2-0.7,0.2-0.8c-0.6-1.3-5.2-2.5-8.7-2.6c-3-0.1-5.6,5-6.4,8.7c-0.5,2.2-1.8,15.2-1.9,15.3&#10;&#9;&#9;C362.5,200.1,362.2,200.3,361.8,200.3z"/>
	<path class="st0_marketing-4-37" d="M424.8,168.5c0,0-26.2-11.4-39.4-8.6c-3.3,0.8-6.6,1.8-9.8,3c-7.5,2.8-14.9,6.3-20.2,7.8&#10;&#9;&#9;c-10.6,3-19.4,1.5-22.2-9.6c-2.3-9.6,1.8-12.4,10.6-17.3c4.4-2.4,13.1-6,21.1-10.5c4.9-2.7,9.5-5.8,12.7-9.2&#10;&#9;&#9;c8.4-9,12.2-25.6,12.2-25.6L424.8,168.5z"/>
	<path class="st2_marketing-4-37" d="M346.9,172.8c-2.7,0.1-5.4-0.6-7.8-1.9c-3.2-1.9-5.4-5.1-6.5-9.6c-2.5-10.1,2.1-13.1,11-18.1&#10;&#9;&#9;c1.9-1,4.5-2.3,7.5-3.7c4.2-2,9-4.2,13.6-6.8c5.7-3.2,9.8-6.2,12.5-9.1c8.2-8.7,12-25.1,12-25.3c0.1-0.3,0.3-0.5,0.6-0.5&#10;&#9;&#9;c0.3,0,0.6,0.1,0.7,0.4l34.9,70c0.1,0.3,0.1,0.6-0.1,0.8c-0.2,0.2-0.5,0.3-0.8,0.2c-0.3-0.1-26.2-11.3-38.9-8.5&#10;&#9;&#9;c-3.3,0.8-6.5,1.7-9.7,2.9c-3.1,1.1-6.1,2.4-9,3.6c-3.7,1.6-7.4,3-11.2,4.2C352.9,172.3,349.9,172.7,346.9,172.8z M390.2,100.5&#10;&#9;&#9;c-1.3,4.6-5.1,16.8-11.9,24.1c-2.8,3-7,6.1-12.8,9.3c-4.6,2.6-9.5,4.9-13.7,6.8c-3,1.4-5.6,2.6-7.5,3.6&#10;&#9;&#9;c-8.8,4.9-12.5,7.4-10.3,16.6c1,4.2,3,7.1,5.8,8.8c3.6,2.1,8.8,2.2,15.5,0.3c3.8-1.2,7.5-2.6,11.1-4.2c3-1.2,6-2.5,9.1-3.6&#10;&#9;&#9;c3.2-1.2,6.5-2.2,9.8-3c11.4-2.5,31.9,5.4,38.1,7.9L390.2,100.5z"/>
	<path class="st2_marketing-4-37" d="M377.5,162.3c-7.5,2.8-16.8,6.6-22,8.4c-12,4.1-18.4,2.9-21.8-8.1c-3.5-11.3,1.4-14,10.2-18.9&#10;&#9;&#9;c4.4-2.4,13.1-6,21.1-10.5c0,0-1.8,6.8,2.2,17C369.3,155.3,372.9,159.5,377.5,162.3z"/>
	<path class="st2_marketing-4-37" d="M345.1,173.6c-1.8,0-3.7-0.3-5.3-1.1c-3-1.5-5.2-4.6-6.8-9.6c-3.7-11.8,1.6-14.7,10.5-19.7&#10;&#9;&#9;c2-1.1,4.6-2.3,7.6-3.7c4.2-2,9-4.2,13.6-6.8c0.2-0.2,0.5-0.2,0.8,0c0.2,0.2,0.3,0.5,0.2,0.7c0,0.1-1.6,6.7,2.2,16.6&#10;&#9;&#9;c1.9,4.8,5.4,8.9,9.9,11.6c0.3,0.2,0.5,0.6,0.3,0.9c-0.1,0.2-0.2,0.3-0.4,0.3c-3.5,1.3-7.3,2.8-11,4.2c-4.2,1.7-8.2,3.2-11.1,4.2&#10;&#9;&#9;C352.3,172.7,348.8,173.4,345.1,173.6z M364.2,134.6c-4.2,2.3-8.6,4.3-12.4,6.1c-3,1.4-5.6,2.6-7.5,3.6c-8.9,4.9-13.3,7.4-9.9,18.1&#10;&#9;&#9;c1.4,4.6,3.4,7.4,6,8.7c3.2,1.6,7.8,1.3,14.8-1.1c2.8-1,6.8-2.5,11-4.2c3.2-1.3,6.5-2.6,9.6-3.7c-4.2-2.8-7.4-6.9-9.2-11.6&#10;&#9;&#9;C363.7,142.9,363.9,137.2,364.2,134.6L364.2,134.6z"/>
	<path class="st3_marketing-4-37 targetColor" d="M433.1,168.7c-7.8,3.5-19.8-5.4-29.3-20.7c-4.8-7.8-8.6-16.2-11.2-25c-5.1-17.5-3.7-32.3,4.2-35.9&#10;&#9;&#9;c9.7-4.3,25.8,10.4,35.8,32.9S442.9,164.3,433.1,168.7z" style="fill: rgb(34, 197, 94);"/>
	<path class="st2_marketing-4-37" d="M400.5,86.4c9.8,0,23.3,13.8,32.1,33.7c10,22.5,10.3,44.3,0.5,48.6c-1.2,0.5-2.4,0.8-3.7,0.8&#10;&#9;&#9;c-7.6,0-17.5-8.4-25.6-21.4c-4.8-7.8-8.6-16.2-11.2-25c-5.1-17.5-3.7-32.3,4.2-35.9C397.9,86.6,399.2,86.4,400.5,86.4 M400.5,85&#10;&#9;&#9;L400.5,85c-1.5,0-2.9,0.3-4.3,0.9c-8.4,3.7-10.4,18.8-5,37.5c2.6,8.9,6.4,17.5,11.3,25.4c8.5,13.6,18.8,22.1,26.8,22.1&#10;&#9;&#9;c1.5,0,2.9-0.3,4.3-0.9c5.3-2.4,8.1-9,8-18.8c-0.1-9.4-2.9-20.6-7.8-31.7C424.8,99.1,411.1,85,400.5,85L400.5,85z"/>
	<path class="st0_marketing-4-37" d="M418.9,137.9L403.8,148c-4.8-7.8-8.6-16.2-11.2-25l18.8-4.6L418.9,137.9z"/>
	
		<ellipse transform="matrix(0.9302 -0.367 0.367 0.9302 -18.0945 161.2856)" class="st2_marketing-4-37" cx="415.1" cy="128.2" rx="4.9" ry="10.5"/>
	<path class="st2_marketing-4-37" d="M418.1,138.8c-2.8,0-6.1-3.4-8.2-8.6c-2.3-5.8-1.8-11.3,1.1-12.4s7,2.5,9.3,8.3l0,0c2.3,5.8,1.8,11.3-1.1,12.4&#10;&#9;&#9;C418.8,138.7,418.5,138.8,418.1,138.8z M412.1,119c-0.2,0-0.4,0-0.6,0.1c-1.8,0.7-2.4,5.3-0.3,10.6s5.6,8.3,7.5,7.6&#10;&#9;&#9;s2.4-5.3,0.3-10.6C417.1,121.9,414,119,412.1,119L412.1,119z"/>
	<path class="st2_marketing-4-37" d="M387.5,190.6c-0.4,0-0.7-0.3-0.7-0.7c0-0.2,0.1-0.4,0.2-0.5c1.5-1.3,3.2-2.4,5-3.2c0.3-0.2,0.8,0,0.9,0.3&#10;&#9;&#9;c0.2,0.3,0,0.8-0.3,0.9c0,0-0.1,0-0.1,0c-1.7,0.8-3.2,1.8-4.6,3C387.8,190.5,387.7,190.6,387.5,190.6z"/>
	<path class="st2_marketing-4-37" d="M383.1,187.2c-0.1,0-0.2,0-0.3-0.1c-0.3-0.2-0.5-0.6-0.3-0.9c0,0,0,0,0,0c1.3-2.1,3.3-3.7,5.7-4.4&#10;&#9;&#9;c0.4-0.1,0.8,0.1,0.9,0.4c0,0,0,0,0,0c0.1,0.4-0.1,0.8-0.4,0.9c0,0,0,0,0,0c-2,0.7-3.7,2-4.9,3.8&#10;&#9;&#9;C383.5,187.1,383.3,187.3,383.1,187.2z"/>
	<path class="st2_marketing-4-37" d="M394.2,192.1c-0.4,0-0.7-0.3-0.7-0.7c0-0.2,0.1-0.4,0.3-0.6l1.6-1.2c0.3-0.3,0.7-0.2,1,0.1&#10;&#9;&#9;c0.3,0.3,0.2,0.7-0.1,1c0,0-0.1,0.1-0.1,0.1l-1.6,1.2C394.5,192.1,394.4,192.1,394.2,192.1z"/>
	<path class="st0_marketing-4-37" d="M344,172.1c-0.2,0-0.4-0.1-0.6-0.3c-5.4-7.8-7.7-15.8-6.4-22.6c0-0.1,0-0.2,0-0.2c0-0.3,0.2-0.6,0.5-0.7&#10;&#9;&#9;c0.4-0.1,0.8,0.1,0.8,0.5c0,0,0,0,0,0c0,0.2,0,0.4,0,0.6c-1.2,6.4,1,14.1,6.2,21.5c0.2,0.3,0.2,0.7-0.1,1c0,0,0,0,0,0&#10;&#9;&#9;C344.3,172.1,344.2,172.1,344,172.1z"/>
	<path class="st0_marketing-4-37" d="M348.4,144.8c-0.3,0-0.5-0.2-0.6-0.4c-0.2-0.4,0-0.8,0.3-0.9l11.3-5.2c0.4-0.2,0.8,0,0.9,0.3&#10;&#9;&#9;c0.2,0.4,0,0.8-0.3,0.9l-11.3,5.2C348.6,144.8,348.5,144.8,348.4,144.8z"/>
	<path class="st0_marketing-4-37" d="M348.9,147.2c-0.4,0-0.7-0.3-0.7-0.7c0-0.3,0.2-0.5,0.4-0.6l11.4-5.2c0.4-0.2,0.8,0,0.9,0.3&#10;&#9;&#9;c0.2,0.4,0,0.8-0.3,0.9l-11.3,5.2C349.1,147.1,349,147.2,348.9,147.2z"/>
	<path class="st0_marketing-4-37" d="M349.6,149.9c-0.4,0-0.7-0.3-0.7-0.7c0-0.3,0.2-0.5,0.4-0.6l11.3-5.2c0.4-0.2,0.8,0,0.9,0.3&#10;&#9;&#9;c0.2,0.4,0,0.8-0.3,0.9c0,0,0,0,0,0l-11.3,5.2C349.8,149.8,349.7,149.9,349.6,149.9z"/>
	<path class="st3_marketing-4-37 targetColor" d="M164.1,228.8L131,317.6c0,0,55.5,18.6,91.9,15.6c0,0,9.9-14.1,17.7-22.1s32.5-15.5,37.9-53.9&#10;&#9;&#9;c0,0,37.9,45.4,55.7,35.9s45.4-71.9,45.4-71.9l-25-17.9L329,239c0,0-67.7-64.7-84.9-75.7c-6.4-4.1-31.6,0.4-61.5,8.4" style="fill: rgb(34, 197, 94);"/>
	<path class="st2_marketing-4-37" d="M233.6,189.8c0,0,0,44.2-3.3,61.9s-12,45.8-12,45.8s40.6-55.9,50.5-95.4L233.6,189.8z"/>
	<path class="st2_marketing-4-37" d="M218.4,298.1c-0.1,0-0.2,0-0.3-0.1c-0.3-0.1-0.4-0.5-0.3-0.7c0.1-0.3,8.7-28.3,11.9-45.8s3.2-61.4,3.2-61.8&#10;&#9;&#9;c0-0.3,0.3-0.6,0.6-0.6c0.1,0,0.1,0,0.2,0l35.2,12.4c0.3,0.1,0.5,0.4,0.4,0.7c-9.8,39.1-50.2,95-50.6,95.6&#10;&#9;&#9;C218.8,298,218.6,298.1,218.4,298.1z M234.2,190.7c0,6.3-0.3,45-3.3,61.1c-2.5,13.8-8.4,34-10.9,42.3c8.5-12.2,39.4-58,48.1-91.5&#10;&#9;&#9;L234.2,190.7z"/>
	<path class="st2_marketing-4-37" d="M261,414.3l-38.2-81.2L131,317.6c0,0-18.2,20.4-22.6,37.4c-3,11.8-14.7,42-9.9,59.4L261,414.3z"/>
	<path class="st2_marketing-4-37" d="M261,415H98.5c-0.3,0-0.6-0.2-0.7-0.5c-3.9-14.2,2.9-36.4,7.4-51.1c1-3.4,2-6.4,2.5-8.6&#10;&#9;&#9;c4.4-17,22.5-37.5,22.7-37.7c0.2-0.2,0.4-0.3,0.6-0.2l91.9,15.6c0.2,0,0.4,0.2,0.5,0.4l38.2,81.1c0.1,0.2,0.1,0.5,0,0.7&#10;&#9;&#9;C261.5,414.9,261.3,415,261,415z M99,413.6h160.9l-37.6-79.9l-91.1-15.5c-2.2,2.5-18.1,21.3-22.2,36.8c-0.6,2.3-1.5,5.3-2.6,8.7&#10;&#9;&#9;C102.1,378.2,95.5,399.8,99,413.6L99,413.6z"/>
	<path class="st0_marketing-4-37" d="M230.4,102c-16.7,15.6-17.3,44.1-35.7,57.7l13.5,9.5c14.2,10,28.7,20.1,45.4,24.8s36.2,2.9,49-8.8&#10;&#9;&#9;c-3.9-4-4.1-10.4-3.6-16c1.9-18.7,9-37.9,3.2-55.8c-1.2-3.8-3.8-10-7-12.5c-4.2-3.4-7.3-0.6-11.9-0.7c-1-0.1-1.9-0.6-2.5-1.3&#10;&#9;&#9;C267.8,88.9,242,91.1,230.4,102z"/>
	<path class="st2_marketing-4-37" d="M271,197c-5.9,0-11.8-0.8-17.5-2.4c-17-4.8-31.5-15-45.6-24.8l-13.5-9.5c-0.2-0.1-0.3-0.3-0.3-0.5&#10;&#9;&#9;c0-0.2,0.1-0.4,0.3-0.5c9.6-7.1,14.4-18.6,19-29.6c4.2-10.1,8.6-20.6,16.6-28c12.1-11.3,38.4-12.9,51.1-3.1l0.1,0.1&#10;&#9;&#9;c0.5,0.5,1.2,0.9,2,1c1.4,0,2.7-0.2,4-0.6c2.7-0.6,5.2-1.1,8.3,1.3c3.8,3.1,6.5,10.6,7.2,12.8c4.2,12.9,1.7,26.5-0.6,39.8&#10;&#9;&#9;c-1,5.4-2,10.9-2.5,16.3c-0.5,4.7-0.6,11.4,3.4,15.5c0.1,0.1,0.2,0.3,0.2,0.5c0,0.2-0.1,0.3-0.2,0.4C294,193.9,282.2,197,271,197z&#10;&#9;&#9; M195.8,159.7l12.8,9c14,9.8,28.5,20,45.2,24.7c14.3,4,34.3,3.9,47.9-8.2c-3.9-4.5-3.8-11.3-3.3-16c0.5-5.4,1.5-11,2.5-16.4&#10;&#9;&#9;c2.4-13.1,4.8-26.6,0.7-39.1c-1.4-4.4-4-10-6.8-12.2c-2.6-2.1-4.6-1.7-7.2-1.1c-1.4,0.4-2.9,0.5-4.3,0.6c-1-0.1-2-0.6-2.8-1.3&#10;&#9;&#9;l-0.1-0.1c-12.3-9.5-37.8-8-49.5,3l0,0c-7.8,7.3-12.1,17.6-16.3,27.6C209.9,141,205.1,152.4,195.8,159.7L195.8,159.7z M230.4,102&#10;&#9;&#9;L230.4,102z"/>
	<path class="st0_marketing-4-37" d="M271.7,178.2l-2.8,23.9c0,0-4.1,13-18.1,7.2c-8.4-3.6-14.7-10.8-17.1-19.5l6.8-41.1c0.3-1.7,3.6-6.7,5.2-21.8&#10;&#9;&#9;c17.7,1.9,33.2-9.7,33.2-9.7s4.9,9.9,7.2,13.1c1.8,2.4,3.4,5.1,4.6,7.9c1.9,4.9,1.1,10.6,0.3,15.7c-0.8,6-2.1,12-4,17.8&#10;&#9;&#9;C283.1,182.5,271.7,178.2,271.7,178.2z"/>
	<path class="st2_marketing-4-37" d="M257.5,211.5c-2.4-0.1-4.8-0.6-7-1.6c-14.1-5.9-17.5-19.8-17.5-20c0-0.1,0-0.2,0-0.2&#10;&#9;&#9;c6.8-41.1,6.8-41.1,6.8-41.1c0.2-0.7,0.4-1.3,0.7-1.9c1.1-2.7,3.3-8.3,4.5-19.9c0-0.2,0.1-0.3,0.2-0.4c0.1-0.1,0.3-0.2,0.5-0.1&#10;&#9;&#9;c17.2,1.9,32.6-9.4,32.8-9.5c0.2-0.1,0.3-0.1,0.5-0.1c0.2,0,0.3,0.2,0.4,0.3c0,0.1,4.9,9.8,7.1,13c1.9,2.5,3.4,5.2,4.6,8&#10;&#9;&#9;c2,5.1,1.1,11.1,0.4,16c-0.8,6.1-2.2,12-4.1,17.9c-0.9,3-2.9,5.5-5.7,6.9c-3.7,1.8-7.8,0.9-9.5,0.5l-2.7,23.1&#10;&#9;&#9;c-0.1,0.3-1.9,5.8-7,8.2C261,211.1,259.3,211.5,257.5,211.5z M234.3,189.8c0.4,1.3,3.9,13.6,16.7,18.9c4.2,1.8,7.9,2,11,0.5&#10;&#9;&#9;c4.6-2.1,6.3-7.2,6.3-7.3l2.8-23.8c0-0.2,0.1-0.4,0.3-0.5c0.2-0.1,0.4-0.1,0.6,0c0,0,5,1.8,9.3-0.2c2.4-1.3,4.2-3.5,5-6.1&#10;&#9;&#9;c1.9-5.7,3.2-11.6,4-17.6c0.7-4.9,1.6-10.6-0.3-15.4c-1.2-2.8-2.7-5.4-4.5-7.7c-2.5-4-4.8-8.2-6.9-12.5c-3,2.1-16.9,10.8-32.4,9.4&#10;&#9;&#9;c-1.2,11.3-3.4,16.9-4.5,19.6c-0.2,0.5-0.4,1.1-0.6,1.7C241,148.9,234.7,187.2,234.3,189.8z"/>
	<path class="st2_marketing-4-37" d="M270.1,190c0,0-9.7-0.8-15.2-8s-3.7-13.6-3.7-13.6s9.6,8.3,20.5,9.9L270.1,190z"/>
	<path class="st2_marketing-4-37" d="M270.1,190.6L270.1,190.6c-0.5,0-10.1-0.9-15.7-8.3s-3.9-13.9-3.8-14.1c0.1-0.2,0.2-0.4,0.4-0.4&#10;&#9;&#9;c0.2-0.1,0.4,0,0.6,0.1c0.1,0.1,9.6,8.2,20.1,9.8c0.3,0.1,0.6,0.4,0.5,0.7l-1.6,11.7C270.7,190.3,270.4,190.6,270.1,190.6z&#10;&#9;&#9; M251.7,169.5c-0.3,4.4,1,8.7,3.8,12.1c4.4,5.9,12,7.4,14.1,7.7l1.4-10.5C262.1,177.2,254.2,171.5,251.7,169.5L251.7,169.5z"/>
	<path class="st0_marketing-4-37" d="M272,136.1c0,0,6.2,12.4,4.2,14.2s-7-0.2-7-0.2"/>
	<path class="st2_marketing-4-37" d="M273.7,151.6c-1.6-0.1-3.2-0.4-4.7-1c-0.3-0.1-0.5-0.5-0.4-0.8c0,0,0,0,0,0c0.1-0.3,0.5-0.5,0.8-0.4&#10;&#9;&#9;c1.3,0.5,4.9,1.5,6.4,0.3c1-0.9-1.4-7.6-4.3-13.4c-0.2-0.3,0-0.7,0.3-0.8c0,0,0,0,0,0c0.3-0.2,0.7,0,0.8,0.3c1.5,3,6.3,13,4,14.9&#10;&#9;&#9;C275.8,151.4,274.7,151.7,273.7,151.6z"/>
	
		<ellipse transform="matrix(8.472133e-02 -0.9964 0.9964 8.472133e-02 117.0559 413.201)" class="st2_marketing-4-37" cx="283.4" cy="142.9" rx="2.5" ry="1.3"/>
	
		<ellipse transform="matrix(8.472133e-02 -0.9964 0.9964 8.472133e-02 102.0205 387.6848)" class="st2_marketing-4-37" cx="262" cy="138.3" rx="2.5" ry="1.3"/>
	<path class="st0_marketing-4-37" d="M249.9,137.4c-1.1-4.4-6.2-6.6-10.4-6.3c-2.8,0.1-5.2,1.9-6.2,4.5c-0.5,1.6-0.8,3.3-0.7,4.9&#10;&#9;&#9;c0.1,3.1,0.7,6.1,1.9,9c0.5,1.5,1.4,2.8,2.5,3.8c1.5,1.2,3.7,1.3,5.3,0.3"/>
	<path class="st2_marketing-4-37" d="M239.9,155.1c-1.2,0-2.3-0.4-3.2-1.1c-1.2-1.1-2.2-2.5-2.7-4.1c-1.2-2.9-1.9-6.1-1.9-9.3&#10;&#9;&#9;c-0.1-1.8,0.1-3.5,0.7-5.2c1.1-2.9,3.7-4.8,6.8-4.9c4.5-0.3,9.9,2.1,11,6.8c0.1,0.3-0.1,0.7-0.4,0.8c-0.3,0.1-0.7-0.1-0.8-0.4&#10;&#9;&#9;c0,0,0-0.1,0-0.1c-1-4-5.7-6.1-9.7-5.8c-2.5,0.1-4.8,1.7-5.7,4.1c-0.5,1.5-0.7,3.1-0.6,4.7c0.1,3,0.7,6,1.9,8.8&#10;&#9;&#9;c0.5,1.4,1.3,2.6,2.3,3.6c1.4,1,3.2,1.1,4.6,0.2c0.3-0.2,0.7,0,0.9,0.3c0.2,0.3,0,0.7-0.3,0.9C241.9,154.8,240.9,155,239.9,155.1z"/>
	<path class="st0_marketing-4-37" d="M275.9,155.5l-11.2-2.5c0,0-3.1,17.5,1.9,18.7S275.5,160.6,275.9,155.5z"/>
	<path class="st2_marketing-4-37" d="M267.2,172.4c-0.3,0-0.5,0-0.8-0.1c-5.5-1.2-2.7-17.5-2.4-19.4c0-0.2,0.1-0.3,0.3-0.4c0.1-0.1,0.3-0.1,0.5-0.1&#10;&#9;&#9;l11.2,2.4c0.3,0.1,0.5,0.3,0.5,0.6c-0.3,4-2.8,13-6.7,15.9C269,172,268.1,172.3,267.2,172.4z M265.2,153.8&#10;&#9;&#9;c-1.1,6.6-1.6,16.6,1.5,17.3c0.8,0.2,1.7-0.1,2.4-0.6c3.2-2.4,5.7-10,6.2-14.5L265.2,153.8z"/>
	<path class="st2_marketing-4-37" d="M261.3,294.6c-0.2,0-0.4-0.1-0.5-0.2c-0.2-0.3-0.2-0.7,0.1-0.9c0.2-0.2,18.7-16.5,20.7-62.1&#10;&#9;&#9;c0-0.4,0.3-0.6,0.7-0.6c0.4,0,0.6,0.3,0.6,0.7l0,0c-2.1,46.2-21,62.8-21.2,63C261.6,294.5,261.4,294.6,261.3,294.6z"/>
	<path class="st2_marketing-4-37" d="M196.6,340.6c-0.1,0-0.2,0-0.3-0.1c-0.3-0.2-0.4-0.6-0.2-0.9c5.9-10.4,21.6-42.1,21.7-42.4&#10;&#9;&#9;c0.2-0.3,0.5-0.4,0.8-0.3c0,0,0,0,0,0c0.3,0.2,0.4,0.5,0.3,0.9c0,0,0,0,0,0c-0.2,0.3-15.9,32-21.8,42.5&#10;&#9;&#9;C197.1,340.5,196.9,340.6,196.6,340.6z"/>
	
		<rect x="64.8" y="272.3" transform="matrix(0.9978 -6.592558e-02 6.592558e-02 0.9978 -20.5459 8.6046)" class="st0_marketing-4-37" width="110.7" height="86.7"/>
	<path class="st2_marketing-4-37" d="M67.7,363.3c-0.4,0-0.7-0.3-0.7-0.7l-5.7-86.5c0-0.2,0-0.4,0.2-0.5c0.1-0.1,0.3-0.2,0.5-0.2l110.5-7.3&#10;&#9;&#9;c0.4,0,0.7,0.3,0.8,0.7l5.7,86.5c0,0.4-0.3,0.7-0.7,0.8L67.7,363.3L67.7,363.3z M62.8,276.7l5.6,85.1l109-7.2l-5.6-85.1L62.8,276.7&#10;&#9;&#9;z"/>
	<path class="st0_marketing-4-37" d="M176.4,290.6l2.8,42.5l0,0l-5.4,0.4c-3.8,0.2-7-2.6-7.3-6.4l0,0l-1.9-28.9c-0.2-3.8,2.6-7,6.4-7.3l0,0&#10;&#9;&#9;L176.4,290.6L176.4,290.6z"/>
	<path class="st2_marketing-4-37" d="M175.9,334c-5.4,0-9.9-4.2-10.2-9.6l0,0l-1.5-23.4c-0.4-5.7,3.8-10.6,9.5-11c0,0,0.1,0,0.1,0l2.7-0.2&#10;&#9;&#9;c0.2,0,0.4,0,0.5,0.2c0.1,0.1,0.2,0.3,0.2,0.5L180,333c0,0.4-0.3,0.7-0.6,0.8c0,0,0,0,0,0l-2.7,0.2L175.9,334z M167.1,324.3&#10;&#9;&#9;c0.3,4.9,4.5,8.5,9.4,8.2l1.9-0.1l-2.7-41l-1.9,0.1c-4.9,0.3-8.5,4.5-8.2,9.4L167.1,324.3z"/>
	
		<rect x="85.1" y="286.1" transform="matrix(0.9978 -6.592558e-02 6.592558e-02 0.9978 -18.9463 7.4793)" class="st0_marketing-4-37" width="37.5" height="9.5"/>
	<path class="st1_marketing-4-37" d="M85.4,297.5c-0.2,0-0.3-0.1-0.5-0.2c-0.1-0.1-0.2-0.3-0.2-0.5l-0.6-9.4c0-0.4,0.3-0.7,0.6-0.7c0,0,0,0,0,0&#10;&#9;&#9;l37.4-2.5c0.2,0,0.4,0,0.5,0.2c0.1,0.1,0.2,0.3,0.2,0.5l0.6,9.4c0,0.4-0.3,0.7-0.6,0.7c0,0,0,0,0,0L85.4,297.5L85.4,297.5z&#10;&#9;&#9; M85.6,288l0.5,8l36-2.4l-0.5-8L85.6,288z"/>
	
		<rect x="86.2" y="302.9" transform="matrix(0.9978 -6.592558e-02 6.592558e-02 0.9978 -20.036 7.9969)" class="st0_marketing-4-37" width="49.9" height="9.5"/>
	<path class="st1_marketing-4-37" d="M86.6,314.7c-0.2,0-0.3-0.1-0.5-0.2c-0.1-0.1-0.2-0.3-0.2-0.5l-0.6-9.4c0-0.4,0.3-0.7,0.7-0.8l49.8-3.3&#10;&#9;&#9;c0.4,0,0.7,0.3,0.7,0.6l0.6,9.4c0,0.2-0.1,0.4-0.2,0.5c-0.1,0.1-0.3,0.2-0.5,0.2L86.6,314.7L86.6,314.7z M86.7,305.2l0.5,8&#10;&#9;&#9;l48.4-3.2l-0.5-8L86.7,305.2z"/>
	
		<rect x="87.4" y="320.5" transform="matrix(0.9978 -6.592558e-02 6.592558e-02 0.9978 -21.2078 7.6889)" class="st0_marketing-4-37" width="37.1" height="9.5"/>
	<path class="st1_marketing-4-37" d="M87.7,331.8c-0.2,0-0.3-0.1-0.5-0.2c-0.1-0.1-0.2-0.3-0.2-0.5l-0.6-9.4c0-0.4,0.3-0.7,0.6-0.7c0,0,0,0,0,0&#10;&#9;&#9;l37-2.5c0.2,0,0.4,0.1,0.5,0.2c0.1,0.1,0.2,0.3,0.2,0.5l0.6,9.4c0,0.4-0.3,0.7-0.6,0.7c0,0,0,0,0,0L87.7,331.8L87.7,331.8z&#10;&#9;&#9; M87.8,322.3l0.5,8L124,328l-0.5-8L87.8,322.3z"/>
	
		<rect x="88.5" y="336.8" transform="matrix(0.9978 -6.592558e-02 6.592558e-02 0.9978 -22.2559 8.6255)" class="st0_marketing-4-37" width="62.2" height="9.5"/>
	<path class="st1_marketing-4-37" d="M88.9,349c-0.2,0-0.3-0.1-0.5-0.2c-0.1-0.1-0.2-0.3-0.2-0.5l-0.6-9.4c0-0.4,0.3-0.7,0.7-0.8l62.1-4.1&#10;&#9;&#9;c0.2,0,0.4,0,0.5,0.2c0.1,0.1,0.2,0.3,0.2,0.5l0.6,9.4c0,0.4-0.3,0.7-0.6,0.7c0,0,0,0,0,0L88.9,349L88.9,349z M89,339.5l0.5,8&#10;&#9;&#9;l60.7-4l-0.5-8L89,339.5z"/>
	<circle class="st0_marketing-4-37" cx="149" cy="289.5" r="8.7"/>
	<path class="st1_marketing-4-37" d="M149,298.8c-5.2,0-9.4-4.2-9.4-9.3c0-4.9,3.7-9,8.6-9.4c5.2-0.4,9.7,3.4,10.1,8.5c0,0,0,0,0,0l0,0&#10;&#9;&#9;c0.4,5.2-3.4,9.7-8.6,10.1C149.5,298.8,149.3,298.8,149,298.8z M149,281.5h-0.7c-4.4,0.4-7.7,4.2-7.3,8.6s4.2,7.7,8.6,7.3&#10;&#9;&#9;c4.4-0.4,7.7-4.2,7.3-8.6c0,0,0,0,0-0.1l0,0C156.6,284.6,153.1,281.5,149,281.5L149,281.5z"/>
	<polyline class="st0_marketing-4-37" points="142,294.5 149,289.5 150.5,280.9 &#9;"/>
	<path class="st1_marketing-4-37" d="M142,295.2c-0.2,0-0.4-0.1-0.6-0.3c-0.2-0.3-0.2-0.7,0.1-1c0,0,0,0,0,0l6.8-4.9l1.5-8.2&#10;&#9;&#9;c0.1-0.4,0.4-0.6,0.8-0.6s0.6,0.4,0.6,0.8l-1.5,8.5c0,0.2-0.1,0.3-0.3,0.4l-7,5.1C142.3,295.2,142.2,295.2,142,295.2z"/>
	<line class="st4_marketing-4-37" x1="149" y1="289.5" x2="156.8" y2="293.3"/>
	<path class="st1_marketing-4-37" d="M156.8,294c-0.1,0-0.2,0-0.3-0.1l-7.8-3.9c-0.3-0.2-0.5-0.6-0.3-0.9c0,0,0,0,0,0c0.2-0.3,0.6-0.5,0.9-0.3&#10;&#9;&#9;l7.8,3.9c0.3,0.2,0.5,0.6,0.4,0.9C157.3,293.8,157,294,156.8,294z"/>
	<line class="st4_marketing-4-37" x1="84.5" y1="282.4" x2="89.2" y2="353.2"/>
	<path class="st1_marketing-4-37" d="M89.2,353.9c-0.4,0-0.7-0.3-0.7-0.6l-4.7-70.8c0-0.4,0.3-0.7,0.7-0.7c0.4,0,0.7,0.3,0.7,0.7l4.7,70.8&#10;&#9;&#9;C89.9,353.6,89.6,353.9,89.2,353.9C89.2,353.9,89.2,353.9,89.2,353.9L89.2,353.9z"/>
	<path class="st1_marketing-4-37" d="M79.7,354.1c-0.4,0-0.7-0.3-0.7-0.6l-1.4-21.9l1.4-0.1l1.4,21.9C80.4,353.7,80.1,354,79.7,354.1L79.7,354.1z"/>
	<path class="st0_marketing-4-37" d="M106.1,304.7c0,0,1.2,20.8,2.5,22.4s18.5,16,15.9,19.4s-10.1-4.1-10.1-4.1s8,19,3.8,20.5s-17.3,3.2-21.2-0.5&#10;&#9;&#9;s-17.6-39.2-18.4-53"/>
	<path class="st2_marketing-4-37" d="M106,365.2c-3.9,0-7.6-0.6-9.5-2.4c-4.1-3.9-17.8-39.8-18.7-53.5c0-0.4,0.3-0.7,0.7-0.7c0.4,0,0.7,0.3,0.7,0.7&#10;&#9;&#9;c0,0,0,0,0,0c0.9,14.1,14.8,49.4,18.2,52.6s16.2,1.9,20.5,0.3c0.2-0.1,0.4-0.3,0.5-0.5c1.4-3.2-2.9-14.8-4.7-19&#10;&#9;&#9;c-0.1-0.3,0-0.7,0.3-0.9c0.3-0.2,0.6-0.2,0.9,0.1c1.4,1.4,5.4,4.9,7.8,4.8c0.5,0,0.9-0.2,1.2-0.6c1.1-1.4-3.4-6.8-13.3-16&#10;&#9;&#9;c-1.5-1.4-2.3-2.1-2.6-2.5c-1.4-1.6-2.4-17.9-2.6-22.8c0-0.4,0.3-0.7,0.7-0.7c0.4,0,0.7,0.3,0.7,0.7l0,0c0.6,10,1.6,21,2.3,22&#10;&#9;&#9;c0.2,0.3,1.3,1.2,2.4,2.3c9.9,9.1,15.6,15.3,13.5,17.9c-0.5,0.7-1.4,1.1-2.2,1.1c-2.2,0.1-4.8-1.6-6.6-3.2c1.8,4.8,5,14,3.6,17.3&#10;&#9;&#9;c-0.2,0.6-0.7,1.1-1.3,1.3C114.4,364.7,110.2,365.3,106,365.2z"/>
	<path class="st3_marketing-4-37 targetColor" d="M182.6,171.7C132.1,185.1,68.5,208.2,61.2,216c-11.6,12.5,16,102.6,16,102.6l33.5-8.6l-7.7-63.3l61.1-17.9" style="fill: rgb(34, 197, 94);"/>
	<path class="st2_marketing-4-37" d="M124.9,240.9c-0.3,0-0.5-0.2-0.6-0.4c-0.1-0.3,0.1-0.7,0.4-0.8c0,0,0,0,0,0l68.9-21.3c0.3-0.1,0.7,0,0.8,0.4&#10;&#9;&#9;c0.1,0.3,0,0.7-0.4,0.8c0,0-0.1,0-0.1,0l-68.9,21.3C125,240.9,125,240.9,124.9,240.9z"/>
</g>
</svg>