<svg id="_0080_market_analysis" data-name="0080_market_analysis" xmlns="http://www.w3.org/2000/svg" xmlns:xlink="http://www.w3.org/1999/xlink" viewBox="0 0 500 500" data-imageid="market-analysis-100" imageName="Market Analysis" class="illustrations_image" style="width: 158px;"><defs><style>.cls-1_market-analysis-100{fill:#ffa515;}.cls-2_market-analysis-100,.cls-3_market-analysis-100{isolation:isolate;opacity:0.32;}.cls-2_market-analysis-100{fill:url(#linear-gradient);}.cls-3_market-analysis-100{fill:url(#linear-gradient-2-market-analysis-100);}.cls-4_market-analysis-100{fill:#ffc65a;}.cls-5_market-analysis-100{fill:#68e1fd;}.cls-6_market-analysis-100{fill:#e85454;}.cls-7_market-analysis-100{fill:#d8d5d0;}.cls-8_market-analysis-100{fill:#eaeaea;}.cls-9_market-analysis-100{fill:none;}.cls-10_market-analysis-100{fill:#ccc;}.cls-11_market-analysis-100{fill:#1784aa;}.cls-12_market-analysis-100{fill:#283860;}.cls-13_market-analysis-100{fill:#653200;}</style><linearGradient id="linear-gradient-market-analysis-100" x1="244.36" y1="1540.89" x2="278.43" y2="1586.79" gradientTransform="matrix(1, 0, 0, -1, 0, 1965.14)" gradientUnits="userSpaceOnUse"><stop offset="0" stop-color="#eaeaea" stop-opacity="0"/><stop offset="1" stop-color="#e85454"/></linearGradient><linearGradient id="linear-gradient-2-market-analysis-100" x1="124.76" y1="1638.68" x2="146.56" y2="1669.67" xlink:href="#linear-gradient-market-analysis-100"/></defs><polygon id="Base_market-analysis-100" class="cls-1_market-analysis-100" points="195.98 187.97 28.92 283.38 302.77 441.48 471.08 345.89 195.98 187.97"/><g id="Shadow_market-analysis-100"><polyline class="cls-2_market-analysis-100" points="359.18 376.81 278.5 422.56 201.54 374.68 274.72 338.44"/><polyline class="cls-3_market-analysis-100" points="203.88 301.58 139.94 341.98 76.02 308.17 149.18 271.92"/></g><g id="Pie_Chart_market-analysis-100" data-name="Pie Chart"><path class="cls-1_market-analysis-100" d="M398.24,181.58a52.14,52.14,0,0,1,16.8-3.25c10.37-.47-9.56,7.72-9.56,7.72"/><ellipse class="cls-1_market-analysis-100" cx="421.36" cy="233.62" rx="37.48" ry="55.9" transform="translate(-37.79 87.65) rotate(-11.37)"/><path class="cls-1_market-analysis-100" d="M426.3,291.54a54.62,54.62,0,0,0,12.27-5.21c5.07-3.21-5-2.32-6.46-2S426.3,291.54,426.3,291.54Z"/><ellipse class="cls-4_market-analysis-100" cx="413.18" cy="236.26" rx="37.48" ry="56.85" transform="translate(-38.47 86.09) rotate(-11.37)"/><path class="cls-5_market-analysis-100 targetColor" d="M384.36,192.67l28.82,43.65V181.37S399.83,174.43,384.36,192.67Z" style="fill: rgb(103, 90, 125);"/><path class="cls-6_market-analysis-100" d="M413.18,236.32l38,17.64s5.49-58.21-37.95-73.16Z"/></g><g id="Documents_market-analysis-100"><polygon class="cls-7_market-analysis-100" points="340.84 301.58 415.29 344.35 311.02 404.69 237.45 360.77 340.84 301.58"/><polygon class="cls-7_market-analysis-100" points="237.45 344.05 237.45 360.77 254.42 352.41 237.45 344.05"/><polygon class="cls-7_market-analysis-100" points="415.29 327.63 415.29 344.35 398.15 336.42 415.29 327.63"/><polygon class="cls-8_market-analysis-100" points="340.84 284.86 415.29 327.63 311.02 387.97 237.45 344.05 340.84 284.86"/><path class="cls-7_market-analysis-100" d="M251.74,337l-.21-1-10.71,1.85s7.91,12.48,13.84,16.45C251.14,349.3,251.71,342.86,251.74,337Z"/><line class="cls-9_market-analysis-100" x1="334.01" y1="296.86" x2="371.35" y2="318.32"/><path class="cls-10_market-analysis-100" d="M333.47,297.77l37.36,21.46a1.05,1.05,0,0,0,1.06-1.82L334.54,296a1.05,1.05,0,1,0-1.06,1.82Z"/><line class="cls-9_market-analysis-100" x1="329.15" y1="300.04" x2="389.22" y2="334.56"/><path class="cls-10_market-analysis-100" d="M328.62,301l60.07,34.51a1.06,1.06,0,0,0,1.44-.38,1,1,0,0,0-.37-1.44l-60.08-34.51a1,1,0,0,0-1.44.37,1.06,1.06,0,0,0,.38,1.45Z"/><line class="cls-9_market-analysis-100" x1="324.29" y1="303.72" x2="384.36" y2="338.24"/><path class="cls-10_market-analysis-100" d="M323.77,304.63l60.08,34.51a1.05,1.05,0,0,0,1.06-1.82l-60.09-34.5a1.05,1.05,0,1,0-1.06,1.82Z"/><line class="cls-9_market-analysis-100" x1="319.35" y1="306.77" x2="379.42" y2="341.28"/><path class="cls-10_market-analysis-100" d="M318.82,307.72l60.07,34.51a1.06,1.06,0,0,0,1.07-1.82L319.88,305.9a1.05,1.05,0,0,0-1.06,1.82Z"/><polygon class="cls-5_market-analysis-100 targetColor" points="290.38 330.57 307.34 320.81 311.54 323.23 294.54 332.94 290.38 330.57" style="fill: rgb(103, 90, 125);"/><polygon class="cls-5_market-analysis-100 targetColor" points="298.13 336.37 328.01 319.16 332.03 321.74 302.34 338.69 298.13 336.37" style="fill: rgb(103, 90, 125);"/><polygon class="cls-5_market-analysis-100 targetColor" points="307.34 341.77 325.3 331.44 329.85 333.66 311.54 344.12 307.34 341.77" style="fill: rgb(103, 90, 125);"/><polygon class="cls-5_market-analysis-100 targetColor" points="316.42 346.31 340.14 332.66 344.58 334.97 320.65 348.64 316.42 346.31" style="fill: rgb(103, 90, 125);"/><polygon class="cls-5_market-analysis-100 targetColor" points="325.27 351.71 334.01 346.68 338.29 349.02 329.44 354.08 325.27 351.71" style="fill: rgb(103, 90, 125);"/><polygon class="cls-5_market-analysis-100 targetColor" points="335.84 356.93 365.73 339.73 369.76 342.3 340.11 359.24 335.84 356.93" style="fill: rgb(103, 90, 125);"/><line class="cls-9_market-analysis-100" x1="273.93" y1="332.07" x2="311.29" y2="353.53"/><path class="cls-10_market-analysis-100" d="M273.37,332.92l37.35,21.46a1.06,1.06,0,0,0,1.45-.37,1.07,1.07,0,0,0-.38-1.45L274.44,331.1a1.07,1.07,0,0,0-1.45.38,1.06,1.06,0,0,0,.38,1.44Z"/><line class="cls-9_market-analysis-100" x1="269.07" y1="335.26" x2="329.15" y2="369.77"/><path class="cls-10_market-analysis-100" d="M268.54,336.17l60.08,34.55a1,1,0,0,0,1.44-.38,1.06,1.06,0,0,0-.38-1.44h0l-60.07-34.58a1.07,1.07,0,0,0-1.45.38,1.06,1.06,0,0,0,.38,1.44Z"/><line class="cls-9_market-analysis-100" x1="264.22" y1="338.94" x2="324.29" y2="373.45"/><path class="cls-10_market-analysis-100" d="M263.7,339.85l60.07,34.51a1.06,1.06,0,0,0,1.07-1.82h0L264.76,338a1.05,1.05,0,1,0-1.06,1.82Z"/><line class="cls-9_market-analysis-100" x1="259.27" y1="341.98" x2="319.35" y2="376.49"/><path class="cls-10_market-analysis-100" d="M258.74,342.89l60.08,34.51a1.05,1.05,0,0,0,1.06-1.82l-60.07-34.51a1.07,1.07,0,0,0-1.45.38A1.06,1.06,0,0,0,258.74,342.89Z"/><polygon class="cls-10_market-analysis-100" points="311.54 392.18 311.36 392.08 237.27 348.95 237.63 348.34 311.54 391.37 415.12 331.13 415.47 331.74 311.54 392.18"/><polygon class="cls-10_market-analysis-100" points="311.17 396 311 395.9 236.9 352.77 237.25 352.16 311.17 395.19 414.75 334.96 415.1 335.56 311.17 396"/><polygon class="cls-10_market-analysis-100" points="311.17 401.51 311 401.4 236.9 358.27 237.25 357.67 311.17 400.7 414.75 340.47 415.1 341.08 311.17 401.51"/></g><g id="Pencil_market-analysis-100"><polyline class="cls-4_market-analysis-100" points="422.14 350.98 433.1 349.29 423.55 359"/><ellipse class="cls-11_market-analysis-100" cx="422.14" cy="355.21" rx="3.26" ry="4.23"/><polygon class="cls-11_market-analysis-100" points="327.26 416.67 423.55 359 420.92 351.29 324.74 408.87 327.26 416.67"/><ellipse class="cls-12_market-analysis-100" cx="326" cy="412.76" rx="3.26" ry="4.23"/><path class="cls-11_market-analysis-100" d="M433.1,349.29l-4.2.64a2,2,0,0,1,1.11,2.45Z"/></g><g id="Character_market-analysis-100"><path class="cls-12_market-analysis-100" d="M193.8,294.63l-1.28-1,1.14-15.17,6.68.24s-.34,6.48,1.09,8.07,5.43.81,5.81,1,3-.42,4.2.88-4.34,4.41-7.13,4.86a17.71,17.71,0,0,1-5.72-.19s-.33-3.92-1.31-3.62-1.4,4.41-1.4,4.41Z"/><path class="cls-13_market-analysis-100" d="M191.05,246.88c-.54,15.86-1.13,36.54-1.13,36.54s3.62,4.93,13.45,2.8c1-.23,3.4-25.51,4.55-38.67A37.85,37.85,0,0,0,191.05,246.88Z"/><path class="cls-12_market-analysis-100" d="M211.2,307.72l-1.28-1,1.14-15.17,6.68.24s-.34,6.48,1.09,8.07,5.43.81,5.81,1,3.05-.42,4.2.88-4.34,4.41-7.13,4.86a17.59,17.59,0,0,1-5.74-.28s-.32-3.92-1.3-3.61-1.4,4.41-1.4,4.41Z"/><path class="cls-13_market-analysis-100" d="M214.07,249.76a40.1,40.1,0,0,0-13.9-3.46c.81,5.94,1.56,10.06,1.69,10.36.32.76,6.43,38.45,6.43,38.45,7.21,2.91,15.73.47,15.73.47s-2.94-29.4-3.18-34.31a13.82,13.82,0,0,0-.08-1.58A11.57,11.57,0,0,0,214.07,249.76Z"/><path class="cls-13_market-analysis-100" d="M169.77,258.53s12.22-11.06,21.32-11.65,22.07,8.85,21,14.33-18.43,17.28-18.43,17.28"/><path class="cls-11_market-analysis-100" d="M194.72,238.79l-9.8-6.88a2.06,2.06,0,0,1-.68-2.53l6.9-15.4a2.06,2.06,0,0,1,2.74-1l.24.13L205,219.84a2.08,2.08,0,0,1,.74,2.72l-8,15.4a2.06,2.06,0,0,1-2.77.94Z"/><path class="cls-11_market-analysis-100" d="M193.85,238.25l-9.8-6.87a2.06,2.06,0,0,1-.68-2.53l6.9-15.4a2.07,2.07,0,0,1,2.74-1,1.41,1.41,0,0,1,.24.13l10.88,6.77a2.07,2.07,0,0,1,.74,2.72l-8,15.4a2.07,2.07,0,0,1-2.77.94A1.13,1.13,0,0,1,193.85,238.25Z"/><polygon class="cls-8_market-analysis-100" points="195.48 237.32 184.51 229.57 191.7 213.6 203.88 221.19 195.48 237.32"/><path class="cls-6_market-analysis-100" d="M190.41,220.38c-3.63,2-9.3,4.2-13.1,6.87-.62.42-1.53,1.88-.93,1.67-.25.29,2.24,1.27,2,1.59-.08.11,1.61-.82,1.71-.78h0a6.56,6.56,0,0,0,4.68.56l.63-.46h0l.15-.1a.29.29,0,0,1,.11-.11h.1a.43.43,0,0,1,.14-.23c.84-.66,2.68-1,2.87-2.11a2.23,2.23,0,0,0-.26-.84.31.31,0,0,1,0-.44,2.59,2.59,0,0,0-.38-1.93h0l.21-.25a24.62,24.62,0,0,0,2.8-2.3.57.57,0,0,0,.18-.35h0v-.11a.68.68,0,0,0-.65-.72A.57.57,0,0,0,190.41,220.38Z"/><path class="cls-13_market-analysis-100" d="M188.56,224.3c-.27-.7-.67-.73-1.3-.47a21.45,21.45,0,0,0-3.61,2.06c-.2.13,0,.44.19.31.72-.49,3.77-2.8,4.39-1.75s-1.4,1.68-2,2L184,227.6c-.21.11,0,.42.2.31l1.4-.73a.2.2,0,0,0,0,.11,2.09,2.09,0,0,0,.42.42,1.41,1.41,0,0,0-.16,1.26v.09a4,4,0,0,1-4.81.7c-.18-.14-.44.12-.25.26a4.19,4.19,0,0,0,5.4-.82,2.4,2.4,0,0,0,.64-.21,4.28,4.28,0,0,0,1.71-1.12,1.4,1.4,0,0,0,0-1.4h0a.89.89,0,0,0,0-1.27l0,0A1.33,1.33,0,0,0,188.56,224.3Zm-.15,3.24a2.37,2.37,0,0,1-.93.76c-.24.14-.8.53-1,.48-.47-.12-.19-.73,0-1h0a2.42,2.42,0,0,0,.71-.42l.88-.56.3-.22a1.13,1.13,0,0,1,.07,1Zm-1.12-.67c-.51.31-.91.7-1.4.16.7-.37,1.4-.73,2.07-1.14a1.63,1.63,0,0,0,.52-.46c.38.63-.83,1.22-1.19,1.46Z"/><path class="cls-11_market-analysis-100" d="M179.57,224.52s2.45.55,2.64,5.68l-1.84,4.55-10-5.16S172.8,226.59,179.57,224.52Z"/><path class="cls-6_market-analysis-100" d="M203.16,226.91c-.74,1.64-1.48,3.13-2.1,4.81-.46-1.11-.88-2-1.4-3.08a.39.39,0,0,0-.08-.1.85.85,0,0,0-1.58.53,7,7,0,0,0,1.16,2.8.72.72,0,0,0-.22.17c-1.4,1.59-1.1,4-.93,6a.75.75,0,0,0,1.13.6.79.79,0,0,0,.4-.1,6.42,6.42,0,0,0,2.59-3.73C203,232.32,204,229.56,203.16,226.91Z"/><path class="cls-11_market-analysis-100" d="M166,226.8l3.6-1.06c.89.12,8.68,3.3,11.91,8.85a35.54,35.54,0,0,1,.8,5.13c.29,2.31.53,4.62.64,7a50.6,50.6,0,0,1-.11,7.59c-.11,1.08-.18,1.63-.36,2.69a4.91,4.91,0,0,1-1.4.85c-10.8,3.76-18.72-2.32-19-3.19s-.84-13.33-1.1-20.73A7.13,7.13,0,0,1,166,226.8Z"/><path class="cls-6_market-analysis-100" d="M175.53,213.92s2.42,12.2-2.07,13.51-9.8-3.76-10.17-6.27S169.23,209.9,175.53,213.92Z"/><path class="cls-13_market-analysis-100" d="M173.79,218.85c.14-.21,2.72-.88,3.26-3.07s-1.4-5-5.92-5.44-12,2-10.88,13.87,13.08,6.75,13.85,3A22.66,22.66,0,0,0,173.79,218.85Z"/><path class="cls-13_market-analysis-100" d="M173.79,218.85s.76,4.05,2.4,5.78,3,4.9.95,7.31,0,3.72,2.8,6,1.09,11.69-9.16,9.4a27.61,27.61,0,0,1-15-8.5s2.64-18.42,5.42-22.75"/><path class="cls-11_market-analysis-100" d="M181.55,234.75s2.32,7.77,4.63,8,5.84-3.19,8.3-7.67a6.51,6.51,0,0,1,7.1,5.86c0,.12,0,.25,0,.37s-8.16,16.55-20.06,12.5"/><ellipse class="cls-11_market-analysis-100" cx="194.21" cy="225.02" rx="4.79" ry="4.12" transform="matrix(0.36, -0.93, 0.93, 0.36, -85.97, 324.27)"/><polygon class="cls-8_market-analysis-100" points="191.42 223.79 192.71 223.39 193.24 225.21 197.42 223.71 197.6 225 192.51 226.86 191.42 223.79"/><path class="cls-8_market-analysis-100" d="M138.78,294a50.69,50.69,0,0,1-10.53-32.48,37,37,0,0,1,10.35-25.35c6-6.19,15.14-9.24,23.22-5,6.71,3.48,10,10.16,12.29,17,2.8,8.19,3.75,18.7,13.74,21.24,3.88,1,7.94.3,11.93,0,7-.48,14.29,1.77,16.45,9.19,3.87,13.28-14,24.6-24,28.89a46.37,46.37,0,0,1-51.4-11.12Q139.76,295.21,138.78,294Z"/><path class="cls-10_market-analysis-100" d="M215.9,278.78c-7.1,12.84-30.21,18.64-42.81,18-11.44-.58-18.66-7.57-17.89-19.15.43-6.35,2.45-12.7,1.87-19.09-1-10.91-11.32-19.86-21.89-17.73a37.33,37.33,0,0,0-7,21.46,50.69,50.69,0,0,0,10.53,32.48c.65.82,1.33,1.61,2,2.38a46.34,46.34,0,0,0,51.39,11.12c10-4.28,27.89-15.61,24-28.88A4.06,4.06,0,0,1,215.9,278.78Z"/></g><g id="Line_Chart_market-analysis-100" data-name="Line Chart"><polygon class="cls-5_market-analysis-100 targetColor" points="352.68 144.72 208.29 58.52 208.29 179.38 352.68 261.03 352.68 144.72" style="fill: rgb(103, 90, 125);"/><rect class="cls-11_market-analysis-100" x="218.7" y="77.86" width="1.4" height="100.45"/><rect class="cls-11_market-analysis-100" x="243.65" y="93.45" width="1.4" height="100.46"/><rect class="cls-11_market-analysis-100" x="282.66" y="116.65" width="1.4" height="100.45"/><rect class="cls-11_market-analysis-100" x="310.84" y="131.95" width="1.4" height="100.46"/><rect class="cls-11_market-analysis-100" x="336.06" y="148.28" width="1.4" height="100.46"/><path class="cls-8_market-analysis-100" d="M303.19,203.87a9,9,0,0,1-2.5-.38c-9.53-2.78-9.07-19-8.88-25.89,0-.83,0-1.53,0-2.08,0-2.24.22-4.91.44-7.73.94-11.61,2.11-26.06-9.23-30.45a5.23,5.23,0,0,0-4.52.06c-4.49,2.37-6.74,11.88-8.92,21.08s-4.18,17.67-8.46,19.63a5.24,5.24,0,0,1-4.77-.36c-7.86-4.09-8.34-12.87-8.81-21.36-.42-7.83-.83-15.22-7.1-18a6.24,6.24,0,0,0-5.69.12c-8.21,4.24-12.49,24.73-12.53,24.93l-1.37-.28c.18-.87,4.46-21.35,13.26-25.89a7.65,7.65,0,0,1,6.9-.16c7,3.11,7.5,11.29,7.93,19.2.45,8.1.9,16.47,8.06,20.19a3.89,3.89,0,0,0,3.54.33c3.66-1.68,5.7-10.32,7.68-18.68,2.25-9.51,4.57-19.34,9.63-22a6.64,6.64,0,0,1,5.68-.13c12.31,4.78,11,20.44,10.12,31.87-.23,2.8-.44,5.44-.44,7.62,0,.56,0,1.28,0,2.12-.19,6.59-.62,22,7.87,24.51a6,6,0,0,0,4.78-.36c4-2.22,6.15-9.72,8.21-17,2.39-8.41,4.87-17.1,10.51-19.52,2.74-1.17,5.91-.77,9.67,1.21l-.65,1.24c-3.37-1.78-6.14-2.15-8.47-1.16-5,2.15-7.41,10.52-9.71,18.62-2.24,7.87-4.36,15.31-8.88,17.81A6.81,6.81,0,0,1,303.19,203.87Z"/><ellipse class="cls-8_market-analysis-100" cx="221.64" cy="163.54" rx="2.76" ry="3.33"/><ellipse class="cls-8_market-analysis-100" cx="334.01" cy="167.88" rx="2.76" ry="3.33"/><ellipse class="cls-8_market-analysis-100" cx="271.01" cy="148.28" rx="2.76" ry="3.33"/><ellipse class="cls-8_market-analysis-100" cx="292.72" cy="171.21" rx="2.76" ry="3.33"/></g><g id="Chat_market-analysis-100"><path class="cls-5_market-analysis-100 targetColor" d="M88.77,136.79l75.28-43.95A3.17,3.17,0,0,1,168.4,94a3.07,3.07,0,0,1,.43,1.62l.21,28a7.63,7.63,0,0,1-3.86,6.69l-73,41.53a3.18,3.18,0,0,1-4.34-1.18,3.25,3.25,0,0,1-.42-1.58l-.21-29.5A3.18,3.18,0,0,1,88.77,136.79Z" style="fill: rgb(103, 90, 125);"/><polyline class="cls-5_market-analysis-100 targetColor" points="94.13 165.59 94.13 181.97 107.8 161.6" style="fill: rgb(103, 90, 125);"/><line class="cls-9_market-analysis-100" x1="158.98" y1="107.71" x2="119.02" y2="130.38"/><path class="cls-8_market-analysis-100" d="M157.9,105.9,118,128.6c-2.36,1.33-.22,4.94,2.14,3.61L160,109.51C162.4,108.18,160.26,104.57,157.9,105.9Z"/><line class="cls-9_market-analysis-100" x1="160.81" y1="118.89" x2="100.42" y2="153.16"/><path class="cls-8_market-analysis-100" d="M159.74,117.09l-60.4,34.25c-2.36,1.34-.22,4.95,2.14,3.61l60.4-34.26c2.35-1.34.21-5-2.14-3.61Z"/></g><g id="Magnifying_Glass_market-analysis-100" data-name="Magnifying Glass"><path class="cls-12_market-analysis-100" d="M60.21,221.86a9.6,9.6,0,0,1-6.9-.17l-8.56,30.52c1.54,4.64,6.18,2.27,6.18,2.27l9.45-32.72Z"/><path class="cls-11_market-analysis-100" d="M58.93,224.77a21.26,21.26,0,0,1-15.32-6.07c-4.53-4.54-6.64-10.93-5.93-18a31.66,31.66,0,0,1,9.36-19h0a31.6,31.6,0,0,1,19-9.35c7.06-.72,13.44,1.39,18,5.93s6.65,10.92,5.93,18a31.6,31.6,0,0,1-9.35,19,31.66,31.66,0,0,1-19,9.36C60.7,224.72,59.81,224.77,58.93,224.77Zm9.73-48.33c-.73,0-1.47,0-2.22.11A27.46,27.46,0,0,0,50,184.7h0a27.43,27.43,0,0,0-8.15,16.43c-.58,5.79,1.09,11,4.72,14.6s8.8,5.3,14.59,4.72a27.43,27.43,0,0,0,16.44-8.15,27.46,27.46,0,0,0,8.15-16.43c.58-5.78-1.1-11-4.73-14.59A17.12,17.12,0,0,0,68.66,176.44Z"/></g></svg>